<svg width="240" height="240" viewBox="0 0 240 240" fill="none" xmlns="http://www.w3.org/2000/svg">
<rect width="240" height="240" fill="#0D0D0F"/>
<path d="M110.625 82.5C84.7367 82.5 63.75 103.487 63.75 129.375C63.75 155.263 84.7367 176.25 110.625 176.25C136.513 176.25 157.5 155.263 157.5 129.375H176.25C176.25 165.619 146.869 195 110.625 195C74.3813 195 45 165.619 45 129.375C45 93.1313 74.3813 63.75 110.625 63.75V82.5ZM110.625 129.375H138.75C138.75 144.908 126.158 157.5 110.625 157.5C95.092 157.5 82.5 144.908 82.5 129.375C82.5 113.842 95.092 101.25 110.625 101.25V129.375ZM110.625 82.5C136.513 82.5 157.5 103.487 157.5 129.375H138.75C138.75 113.842 126.158 101.25 110.625 101.25V82.5ZM110.625 45C157.224 45 195 82.776 195 129.375H176.25C176.25 93.1313 146.869 63.75 110.625 63.75V45Z" fill="white"/>
</svg>
